<svg width="115" height="183" viewBox="0 0 115 183" fill="none" xmlns="http://www.w3.org/2000/svg">
	<g clip-path="url(#clip0_7634_131861)">
		<path
			d="M65.6337 47.6172C65.6336 47.408 65.6747 47.2009 65.7548 47.0076C65.8348 46.8143 65.9521 46.6387 66.1 46.4908C66.2479 46.3428 66.4236 46.2255 66.6168 46.1455C66.8101 46.0655 67.0173 46.0243 67.2265 46.0244H73.5101C73.7195 46.0241 73.9269 46.065 74.1204 46.1449C74.314 46.2248 74.4899 46.3421 74.6381 46.49C74.7863 46.6379 74.9038 46.8137 74.984 47.0071C75.0642 47.2005 75.1055 47.4078 75.1055 47.6172V48.0528H89.5594V26.0679H50.502V48.0528H65.6337V47.6172Z"
			fill="#3F3D56" />
		<path d="M102.126 26.0679H91.5874V48.0528H100.536L102.126 26.0679Z" fill="#3F3D56" />
		<path
			d="M89.5583 0V24.0365H76.8596C70.2712 24.0355 63.922 21.5676 59.0624 17.1188C54.2029 12.6699 51.1853 6.56273 50.604 0H89.5583Z"
			fill="#3F3D56" />
		<path
			d="M103.695 4.40987L102.272 24.0365H91.5864V0H99.5969C100.162 0.000289362 100.72 0.116986 101.238 0.342808C101.756 0.56863 102.222 0.89873 102.606 1.31252C102.991 1.7263 103.286 2.21489 103.473 2.7478C103.66 3.28071 103.736 3.8465 103.695 4.40987Z"
			fill="#3F3D56" />
		<path
			d="M100.043 54.8177L98.3391 86.8647L98.3262 87.0967L97.7772 97.4293C97.6916 99.781 96.6972 102.008 95.0032 103.641C93.3093 105.275 91.0478 106.187 88.6946 106.187H51.7017C50.1853 106.189 48.6928 105.81 47.3614 105.084C47.3382 105.071 47.315 105.058 47.2944 105.048C47.0753 104.927 46.8639 104.795 46.6577 104.659C46.6062 104.623 46.5547 104.589 46.5031 104.553C45.3474 103.748 44.3948 102.686 43.7207 101.449C43.0465 100.213 42.6694 98.8367 42.619 97.4293L40.3535 54.8177H100.043Z"
			fill="#3F3D56" />
		<path
			d="M36.9827 8.22203L38.1279 24.0364H48.4709V0H44.5938C44.5595 0 44.5251 0.000154532 44.4907 0.000462098C43.4479 0.0163084 42.4194 0.245304 41.4685 0.673367C40.5175 1.10143 39.6642 1.71951 38.9609 2.48959C38.2577 3.25968 37.7194 4.16548 37.3792 5.15131C37.039 6.13713 36.9041 7.18213 36.9827 8.22203Z"
			fill="#3F3D56" />
		<path d="M39.8651 48.0528H48.471V26.0679H38.2749L39.8651 48.0528Z" fill="#3F3D56" />
		<path
			d="M89.4964 2.32031H89.5583V23.4547H89.4964C86.6938 23.4547 84.006 22.3414 82.0243 20.3596C80.0425 18.3779 78.9292 15.6901 78.9292 12.8875C78.9292 10.0849 80.0425 7.39711 82.0243 5.41537C84.006 3.43364 86.6938 2.32031 89.4964 2.32031Z"
			fill="#B6FA01" />
		<path
			d="M100.063 12.8864C100.063 15.3263 99.2183 17.6908 97.6733 19.5792C96.1283 21.4676 93.9778 22.7635 91.5864 23.2474V2.52539C93.9778 3.00926 96.1283 4.30524 97.6733 6.19361C99.2183 8.08198 100.063 10.4465 100.063 12.8864Z"
			fill="#B6FA01" />
		<path opacity="0.3"
			d="M47.7173 56.5995C49.1795 56.6682 52.2039 57.3943 55.4811 58.3331C58.7564 59.2729 62.309 60.4193 65.8164 61.5533C71.9562 63.5368 78.0956 65.5197 84.2348 67.5019C85.0788 67.774 85.9252 68.0485 86.7738 68.3254C87.0987 68.7504 87.4221 69.1797 87.7392 69.6133C86.9933 69.3496 86.2443 69.0944 85.4976 68.8513C82.3072 67.8145 79.5387 67.1308 76.4424 66.1875C71.6774 64.7371 66.6504 62.8324 61.7749 61.0587C56.8999 59.2835 51.3066 57.3728 47.7173 56.5995Z"
			fill="#F0F0F0" />
		<path
			d="M69.1575 12.9958C69.5651 12.9958 69.8955 12.6654 69.8955 12.2578C69.8955 11.8502 69.5651 11.5198 69.1575 11.5198C68.7499 11.5198 68.4194 11.8502 68.4194 12.2578C68.4194 12.6654 68.7499 12.9958 69.1575 12.9958Z"
			fill="white" />
		<path
			d="M95.4465 33.0998C95.8541 33.0998 96.1845 32.7694 96.1845 32.3618C96.1845 31.9542 95.8541 31.6238 95.4465 31.6238C95.0389 31.6238 94.7085 31.9542 94.7085 32.3618C94.7085 32.7694 95.0389 33.0998 95.4465 33.0998Z"
			fill="white" />
		<path
			d="M72.7654 101.155C73.0379 101.155 73.2588 100.934 73.2588 100.661C73.2588 100.389 73.0379 100.168 72.7654 100.168C72.4929 100.168 72.272 100.389 72.272 100.661C72.272 100.934 72.4929 101.155 72.7654 101.155Z"
			fill="white" />
		<path
			d="M89.5183 64.0405C89.7909 64.0405 90.0118 63.8195 90.0118 63.547C90.0118 63.2745 89.7909 63.0536 89.5183 63.0536C89.2458 63.0536 89.0249 63.2745 89.0249 63.547C89.0249 63.8195 89.2458 64.0405 89.5183 64.0405Z"
			fill="white" />
		<path
			d="M61.1673 35.9466C61.4398 35.9466 61.6607 35.7257 61.6607 35.4532C61.6607 35.1806 61.4398 34.9597 61.1673 34.9597C60.8947 34.9597 60.6738 35.1806 60.6738 35.4532C60.6738 35.7257 60.8947 35.9466 61.1673 35.9466Z"
			fill="white" />
		<path
			d="M53.951 76.4118C54.2235 76.4118 54.4444 76.1909 54.4444 75.9184C54.4444 75.6458 54.2235 75.4249 53.951 75.4249C53.6784 75.4249 53.4575 75.6458 53.4575 75.9184C53.4575 76.1909 53.6784 76.4118 53.951 76.4118Z"
			fill="white" />
		<path
			d="M77.1848 81.8488C77.012 81.7356 76.8332 81.6216 76.65 81.5129C75.7951 81.0065 74.8448 80.6117 73.9161 80.8821C72.9427 81.1651 72.3209 82.0915 71.7966 82.9592C68.958 87.6551 66.4961 92.5686 64.4341 97.6536C67.7035 94.9271 68.5473 90.1809 71.4614 87.0768C71.9545 86.5525 72.5815 86.0498 73.3002 86.0819C73.8796 86.1072 74.3771 86.4721 74.888 86.7454C76.2337 87.4663 77.8096 87.5855 79.3326 87.6905C81.4404 87.8362 83.5485 87.9817 85.6569 88.1269L85.6599 88.0934C84.1662 86.8599 82.637 85.6737 81.0723 84.535C79.7981 83.6066 78.5022 82.7112 77.1848 81.8488Z"
			fill="#F2F2F2" />
		<path
			d="M91.8032 93.4313C89.6148 90.5205 87.1164 87.8561 84.3521 85.4853C84.1304 85.2946 83.9062 85.1064 83.6794 84.9183C83.1948 84.5188 82.7043 84.1279 82.2077 83.7456C81.1561 82.9414 80.0771 82.1803 78.9705 81.462C78.3056 81.0316 77.6312 80.6166 76.9473 80.2172C76.7746 80.1167 76.6019 80.0161 76.4267 79.9182C75.9911 79.6733 75.5555 79.4285 75.1096 79.2017C74.6835 78.9518 74.2055 78.8036 73.7127 78.7687C72.0194 78.7429 71.1405 80.6605 70.5374 81.9517C70.3492 82.359 70.1576 82.7645 69.9626 83.1683C69.2307 84.7018 68.4695 86.2207 67.6791 87.725C67.192 88.6555 66.6945 89.5799 66.1868 90.4983C65.4651 91.7998 64.7237 93.0885 63.9625 94.3643C63.0501 95.8953 62.1094 97.4082 61.1403 98.9031C59.4728 101.473 57.8155 103.828 56.0371 106.187H56.3052C58.2872 103.519 60.1695 100.785 61.9522 97.9855C63.4986 95.5576 64.9694 93.0842 66.3646 90.5653C67.027 89.3668 67.6722 88.1589 68.3002 86.9415C68.7848 85.9956 69.2599 85.0463 69.7255 84.0935C69.8595 83.8203 69.9884 83.5471 70.1173 83.2713C70.4214 82.6244 70.7178 81.9749 71.0374 81.3383C71.4008 80.6141 71.8415 79.8512 72.5116 79.364C72.8152 79.133 73.178 78.9927 73.5581 78.9594C74.0943 78.9637 74.6192 79.1143 75.0761 79.395C75.6818 79.712 76.2815 80.0419 76.8751 80.3847C78.6816 81.4366 80.4188 82.6031 82.0762 83.877C82.968 84.5626 83.8349 85.2757 84.6768 86.0162C87.6068 88.5882 90.2252 91.4946 92.4785 94.6762C92.5481 94.7741 92.7105 94.6813 92.6409 94.5808C92.3677 94.1942 92.0884 93.811 91.8032 93.4313Z"
			fill="#F2F2F2" />
		<path
			d="M96.9297 85.7662C95.9657 85.0496 94.9674 84.383 93.9347 83.7661C93.4193 83.4568 92.8986 83.163 92.3677 82.8795C92.2079 82.7945 92.0455 82.712 91.8832 82.6321C91.512 82.4438 91.1258 82.2869 90.7285 82.163C90.1668 81.9812 89.5726 81.9223 88.9862 81.9903C88.4197 82.0726 87.874 82.2615 87.3779 82.547C86.3238 83.1372 85.5068 84.0471 84.7129 84.9362C84.6965 84.9543 84.6875 84.978 84.688 85.0025C84.6885 85.0269 84.6983 85.0503 84.7155 85.0677C84.7232 85.0774 84.733 85.0852 84.7442 85.0905C84.7554 85.0959 84.7676 85.0987 84.7799 85.0987C84.7923 85.0987 84.8045 85.0959 84.8157 85.0905C84.8268 85.0852 84.8366 85.0774 84.8444 85.0677C84.9449 84.9594 85.0403 84.8486 85.1408 84.7404C85.9217 83.8744 86.7594 83.0213 87.8341 82.5264C88.3453 82.2817 88.904 82.1523 89.4707 82.1475C90.055 82.1626 90.6313 82.2876 91.1692 82.5161C91.4244 82.6192 91.6744 82.7352 91.9218 82.8589C92.2028 83.0006 92.4811 83.1527 92.7543 83.3048C93.2724 83.5909 93.7827 83.889 94.2853 84.1991C95.2879 84.8177 96.2578 85.4844 97.1951 86.1992C97.5792 86.4904 97.9554 86.7868 98.3266 87.0961L98.3395 86.8641C97.8781 86.4853 97.4082 86.1193 96.9297 85.7662Z"
			fill="#F2F2F2" />
		<path
			d="M51.4009 98.6362C52.4989 97.2599 53.6063 95.8905 54.7231 94.5279C54.9912 94.198 55.2618 93.8655 55.535 93.5382C55.7542 93.2654 55.9937 93.0095 56.2515 92.7727C56.5035 92.5355 56.8006 92.3514 57.1252 92.2315C57.4887 92.1182 57.8773 92.1128 58.2438 92.216C58.6631 92.3377 59.076 92.4805 59.481 92.6439L60.7361 93.1026L63.2594 94.0253C63.2751 94.0327 63.293 94.0344 63.3099 94.0302C63.3268 94.026 63.3417 94.0161 63.3521 94.0021C63.3619 93.9896 63.3686 93.975 63.3717 93.9594C63.3748 93.9439 63.3742 93.9278 63.37 93.9125C63.3657 93.8972 63.3579 93.8831 63.3472 93.8714C63.3365 93.8596 63.3232 93.8506 63.3083 93.8449L62.6743 93.6104L60.133 92.6825C59.7103 92.5279 59.2902 92.3707 58.8675 92.2186C58.4801 92.0555 58.066 91.9646 57.6459 91.9506C56.9293 91.9634 56.3314 92.4016 55.852 92.8965C55.5917 93.1671 55.3546 93.4583 55.1175 93.7496C54.8365 94.0924 54.553 94.4377 54.2721 94.7831C53.1432 96.1646 52.0221 97.5538 50.9086 98.9507C49.7952 100.348 48.6887 101.749 47.589 103.154C47.2256 103.621 46.8639 104.087 46.5039 104.554C46.5555 104.59 46.607 104.623 46.6585 104.66C47.1431 104.031 47.6311 103.404 48.1225 102.778C49.2076 101.391 50.3004 100.011 51.4009 98.6362Z"
			fill="#F2F2F2" />
		<path
			d="M88.1659 83.6145C87.2292 84.096 86.5185 84.9302 85.6099 85.4627C87.7979 84.8151 90.022 84.296 92.2706 83.9081C91.674 83.4994 90.9794 83.2568 90.258 83.2052C89.5367 83.1536 88.8146 83.2949 88.1659 83.6145Z"
			fill="#F2F2F2" />
		<path d="M92.2705 83.9072C92.3597 83.9695 92.4466 84.0354 92.5301 84.1057L92.2831 83.9049L92.2705 83.9072Z"
			fill="#F2F2F2" />
		<path
			d="M57.2341 93.2925C56.8741 93.4517 56.5662 93.7088 56.3452 94.0346C53.2624 97.7872 50.1795 101.54 47.0967 105.292C51.3716 102.053 54.9394 97.9741 57.5811 93.3062L57.2341 93.2925Z"
			fill="#F2F2F2" />
		<path
			d="M25.7461 102.22C25.7472 102.227 25.7483 102.231 25.7495 102.238C25.7573 102.284 25.7652 102.326 25.7742 102.372V102.375C26.1571 104.49 26.5778 106.57 27.0363 108.614L113.641 108.429C114.105 106.342 114.532 104.218 114.921 102.054C114.922 102.049 114.923 102.044 114.923 102.039L25.7461 102.22Z"
			fill="#E6E6E6" />
		<path
			d="M30.1628 78.9922L36.189 78.8113C37.8166 82.3912 35.8243 90.1344 35.8243 90.1344L33.5837 106.064C33.9387 106.368 34.2072 106.76 34.3622 107.202C34.5172 107.643 34.5533 108.117 34.4668 108.576C34.3802 109.036 34.1742 109.465 33.8694 109.819C33.5646 110.174 33.1717 110.442 32.7304 110.596C32.2891 110.751 31.8148 110.786 31.3554 110.699C30.896 110.612 30.4676 110.406 30.1134 110.1C29.7592 109.795 29.4917 109.402 29.3377 108.96C29.1838 108.519 29.1488 108.045 29.2364 107.585L27.7354 90.113L30.1628 78.9922Z"
			fill="#FFB8B8" />
		<path
			d="M29.9019 80.3723L31.1655 71.6683L34.5183 68.4457C35.1788 67.8154 36.0025 67.3825 36.8961 67.1958C37.7898 67.009 38.7179 67.076 39.5755 67.389C40.7352 67.8212 41.6875 68.6776 42.2399 69.7851C42.7923 70.8926 42.9036 72.1685 42.5512 73.3549C41.4795 76.9521 39.6633 81.3754 37.0969 82.021L37.0708 82.0276L29.9019 80.3723Z"
			fill="#B6FA01" />
		<path d="M55.3843 178.853H58.6723L60.2362 166.172L55.3838 166.172L55.3843 178.853Z" fill="#FFB6B6" />
		<path
			d="M54.5459 177.779V182.04H65.1466V181.906C65.1464 180.811 64.7116 179.762 63.9378 178.988C63.164 178.214 62.1146 177.779 61.0202 177.779L59.0821 176.31L58.9815 176.351L55.4712 177.779H54.5459Z"
			fill="#2F2E41" />
		<path d="M32.961 178.853H36.2489L37.8129 166.172L32.9604 166.172L32.961 178.853Z" fill="#FFB6B6" />
		<path
			d="M32.1235 177.779V182.04H42.7242V181.906C42.7241 180.811 42.2893 179.762 41.5155 178.988C40.7417 178.214 39.6922 177.779 38.5979 177.779L36.6597 176.31L36.5592 176.351L33.0488 177.779H32.1235Z"
			fill="#2F2E41" />
		<path
			d="M57.5857 100.974L34.9032 99.6459C34.9032 99.6459 30.2173 108.506 31.7637 114.95C33.3101 121.393 33.8473 134.259 32.9344 135.3C32.0215 136.342 31.7637 134.538 32.7947 136.599C33.8372 138.685 33.5679 136.084 33.5679 137.888C33.5238 139.075 33.1713 140.229 32.545 141.238V172.405L40.5102 171.893C40.5102 171.893 42.6617 170.842 40.821 169.056C38.9803 167.27 37.8019 168.674 38.9066 166.426C40.0113 164.177 40.5268 166.755 40.0113 164.177C39.4958 161.6 45.9795 122.907 45.9795 122.907C45.9795 122.907 48.4663 130.904 49.5475 138.146C51.4091 150.614 52.4006 165.404 53.1426 166.177C54.3156 167.399 55.0889 165.853 54.3156 167.399C53.5424 168.945 51.8113 168.615 52.9346 169.553C54.0579 170.492 54.0579 169.203 54.0579 170.492C54.0667 171.313 54.1833 172.13 54.4045 172.921L60.9815 172.479L60.6302 138.919L57.5857 100.974Z"
			fill="#2F2E41" />
		<path
			d="M51.133 61.1868L43.8598 60.3213L41.9974 64.2305C41.9974 64.2305 31.7939 69.7382 32.1653 71.0817C32.5367 72.4253 35.3718 78.0955 34.5986 79.6419C33.8254 81.1883 31.8122 81.7027 33.3343 83.1208C34.8563 84.5389 35.8873 85.0544 35.3718 86.343C34.8563 87.6317 35.1141 92.271 35.1141 92.271C35.1141 92.271 32.1212 97.7652 33.1022 98.8841C34.0831 100.003 34.8563 98.9053 34.0831 100.485C33.3099 102.065 27.3617 103.874 33.042 104.001C38.7224 104.127 40.011 100.519 44.3926 103.354C48.7741 106.189 57.4438 103.536 57.4438 103.536C57.4438 103.536 57.9472 100.519 57.7422 98.7144C57.5371 96.9102 57.0575 97.806 57.4262 94.7808C57.7949 91.7555 58.3984 84.5853 58.3984 84.5853C58.3984 84.5853 61.7462 69.7392 60.8877 68.3015C60.0292 66.8637 52.4758 64.9611 52.4758 64.9611L51.133 61.1868Z"
			fill="#B6FA01" />
		<path
			d="M56.1226 82.9715L61.331 79.9352C64.4704 82.3034 66.4172 90.0582 66.4172 90.0582L72.0545 105.124C72.5117 105.222 72.935 105.439 73.2819 105.752C73.6287 106.066 73.8868 106.465 74.0302 106.91C74.1736 107.355 74.1972 107.83 74.0987 108.288C74.0002 108.745 73.783 109.168 73.469 109.514C73.155 109.861 72.7553 110.118 72.31 110.261C71.8648 110.404 71.3898 110.427 70.9328 110.328C70.4759 110.229 70.0531 110.011 69.707 109.697C69.3609 109.382 69.1037 108.982 68.9614 108.537L59.2997 93.9018L56.1226 82.9715Z"
			fill="#FFB8B8" />
		<path
			d="M56.5526 84.3084L53.5068 76.0574L54.914 71.625C55.1934 70.7558 55.7103 69.9821 56.4064 69.3914C57.1024 68.8006 57.9498 68.4163 58.8529 68.2818C61.3954 67.9208 61.6198 68.8125 62.1528 71.3246C62.9288 74.997 63.2475 76.912 63.6616 82.3216L63.6419 82.3398L56.5526 84.3084Z"
			fill="#B6FA01" />
		<path
			d="M48.2204 58.9009C52.0113 58.9009 55.0844 55.8278 55.0844 52.0369C55.0844 48.2461 52.0113 45.173 48.2204 45.173C44.4295 45.173 41.3564 48.2461 41.3564 52.0369C41.3564 55.8278 44.4295 58.9009 48.2204 58.9009Z"
			fill="#FFB8B8" />
		<path
			d="M46.7209 58.7062C48.6483 58.2951 48.7327 57.7515 50.6601 57.3404C51.2738 57.2095 51.9871 56.9943 52.1887 56.4001C52.3322 55.9768 52.1475 55.5093 51.889 55.1447C51.5997 54.8044 51.33 54.4478 51.0812 54.0768C50.9182 53.7801 50.8299 53.4482 50.824 53.1097C50.818 52.7712 50.8946 52.4364 51.047 52.1341C51.1995 51.8319 51.4232 51.5713 51.699 51.3749C51.9747 51.1785 52.2941 51.0522 52.6296 51.0069C53.2242 50.9267 53.828 51.1048 54.4255 51.0501C55.2449 50.975 56.5517 47.991 56.0512 47.3379C55.5641 46.7022 54.7416 46.3041 54.4874 45.5446C54.3211 45.0478 54.4409 44.5031 54.3774 43.9831C54.2833 43.2121 52.6567 45.2801 52.8897 44.5392C53.4612 42.7215 44.9002 42.1294 43.9246 44.4526C43.56 45.321 42.6522 45.4289 41.9353 46.0396C41.4655 46.4399 40.3297 47.7338 40.1465 48.4462C39.9901 49.1677 39.9889 49.9142 40.143 50.6363C40.7362 54.0162 41.8076 57.031 44.8899 58.5393"
			fill="#2F2E41" />
		<path
			d="M15.6502 180.964C13.789 181.128 11.9146 180.874 10.164 180.221C8.41336 179.568 6.83072 178.532 5.53166 177.189C3.83304 175.398 2.66737 173.093 1.54007 170.864C1.21192 170.215 0.872719 169.544 0.52763 168.901C0.142899 168.2 -0.023142 167.4 0.0508945 166.604C0.124931 165.808 0.435657 165.052 0.943038 164.434C1.42927 163.816 2.08935 163.358 2.83825 163.119C3.58715 162.88 4.39055 162.87 5.14491 163.092L5.30941 163.139L6.78989 168.916C7.01075 168.055 7.48483 166.113 7.78419 164.211L7.80934 164.052L7.95677 164.117C9.50262 164.801 10.9562 165.677 12.2832 166.724C14.634 168.61 16.5459 170.985 17.8862 173.684C19.2264 176.383 19.9628 179.342 20.0442 182.354L20.0481 182.534L15.6502 180.964Z"
			fill="#F2F2F2" />
		<path
			d="M114.685 182.921L0.314693 183.001C0.233302 183.001 0.155251 182.968 0.0976994 182.911C0.0401476 182.853 0.0078125 182.775 0.0078125 182.694C0.0078125 182.612 0.0401476 182.534 0.0976994 182.477C0.155251 182.419 0.233302 182.387 0.314693 182.387L114.685 182.308C114.767 182.308 114.845 182.34 114.902 182.397C114.96 182.455 114.992 182.533 114.992 182.614C114.992 182.696 114.96 182.774 114.902 182.831C114.845 182.889 114.767 182.921 114.685 182.921Z"
			fill="#CACACA" />
	</g>
	<defs>
		<clipPath id="clip0_7634_131861">
			<rect width="114.984" height="183" fill="white" transform="translate(0.0078125)" />
		</clipPath>
	</defs>
</svg>